PathFileType	4	(X/Y/Z)	pose_F01_0-89.trc
DataRate	CameraRate	NumFrames	NumMarkers	Units	OrigDataRate	OrigDataStartFrame	OrigNumFrames
30	30	13	21	m	30	44	89
Frame#	Time	CHip			RHip			RKnee			RAnkle			RBigToe			RSmallToe			RHeel			LHip			LKnee			LAnkle			LBigToe			LSmallToe			LHeel			Neck			Nose			RShoulder			RElbow			RWrist			LShoulder			LElbow			LWrist			
		X1	Y1	Z1	X2	Y2	Z2	X3	Y3	Z3	X4	Y4	Z4	X5	Y5	Z5	X6	Y6	Z6	X7	Y7	Z7	X8	Y8	Z8	X9	Y9	Z9	X10	Y10	Z10	X11	Y11	Z11	X12	Y12	Z12	X13	Y13	Z13	X14	Y14	Z14	X15	Y15	Z15	X16	Y16	Z16	X17	Y17	Z17	X18	Y18	Z18	X19	Y19	Z19	X20	Y20	Z20	X21	Y21	Z21	
44	1.4666666666666666	-0.25902725734256804	1.8379981095311269	-0.710396931038033	-0.27322791667809065	1.836074821350402	-0.6422145923035948	-0.2594592973295768	1.6907235062975117	-0.49687705676444205													-0.24161356983826615	1.843440013849842	-0.7723459493841695	-0.24127855261703987	1.7145491016602774	-0.7684075794878215													-0.2530936376701582	1.9937349388458745	-0.7099458967083119	-0.2346721790175116	2.0596054050819754	-0.6914159228326912	-0.27517288389826466	1.984774211226449	-0.6134430995201174	-0.29439269299152393	1.9125678411611515	-0.5521357130933828	-0.2638776872018942	1.9015902350543472	-0.6038680905338581	-0.22798095849593772	2.0005511695747744	-0.8057667628871429	-0.20691359996994013	1.9350644433854127	-0.8670065638948999	-0.20901456988767525	1.9693220059040448	-0.8034106774688385
45	1.5	-0.2580881542646669	1.838104491340147	-0.7074448296466967	-0.2703931999224258	1.8347784314909896	-0.6411301017571351	-0.2594592973295768	1.6907235062975117	-0.49687705676444205													-0.2417436691169911	1.8419689022827366	-0.7721745799497806	-0.24127855261703987	1.7145491016602774	-0.7684075794878215													-0.25317337287826164	1.9909796864822753	-0.7095351829700609	-0.23392663360996574	2.0584094395350117	-0.6884012631933177	-0.2752800749120333	1.9834010417335695	-0.6133584771005413	-0.29935671068891784	1.9160295372852392	-0.5428382450161724	-0.2676260158530742	1.9024152903424052	-0.5792887669864005	-0.23032708061925874	1.9980772514894503	-0.8031722012893766	-1.0530650889444142	1.8261965546700971	-0.06539634111970703	-1.108208704744509	1.8530956435345831	0.047966398387599835
46	1.5333333333333334	-0.2571129876531595	1.8377806013044675	-0.7125378180149164	-0.27161371461519207	1.8348431733156059	-0.6441369216065732	-0.2594592973295768	1.6907235062975117	-0.49687705676444205													-0.24201699962830556	1.8417469221799405	-0.7721193713384362	-0.24127855261703987	1.7145491016602774	-0.7684075794878215													-0.2530949074625104	1.9911914678529976	-0.7097501672280438	-0.23391853500034604	2.0560184489722517	-0.6882730263727385	-0.27325883362555226	1.9831231717583113	-0.6155447744876031	-0.29681366785779384	1.9131034922572885	-0.5440406433614394	-0.26849828350168453	1.9077543104817998	-0.5833501614173267	-0.22890144856786176	1.9982743037954964	-0.8084271696312134	-1.0517415833175279	1.8267051470871496	-0.07193534818843149	-1.1241400544720683	1.8548783761715666	0.07294580319825188
47	1.5666666666666667	-0.2554419330627776	1.8379534217488345	-0.7180980110059039	-0.26996310614467944	1.8356854756915484	-0.6540460599319387	-0.2594592973295768	1.6907235062975117	-0.49687705676444205													-0.2403258781116897	1.8423459159386932	-0.7775550573353023	-0.24127855261703987	1.7145491016602774	-0.7684075794878215													-0.24925251661483386	1.9930514831468866	-0.7257582773553182	-0.23346148592034993	2.0562573099888337	-0.6964534182785521	-0.27092446022235356	1.9833592176071815	-0.6261853739817435	-0.2928717439111806	1.910206721530002	-0.556917582925432	-0.26524689555920195	1.9102455245357404	-0.6002493580296618	-0.2259762973397405	1.9998475668020854	-0.8193394924232459	-1.046201064239152	1.8261243693783442	-0.08180128475447716	-0.20774825452800302	1.9719514233797468	-0.8331719701941488
48	1.6	-0.2519467317042851	1.8398641670874563	-0.7259104905502792	-0.26831249767416676	1.836527778067491	-0.6639551982573041	-0.2594592973295768	1.6907235062975117	-0.49687705676444205													-0.23838679456381967	1.8430005646794227	-0.7914726108033493	-0.24127855261703987	1.7145491016602774	-0.7684075794878215													-0.24867120363990847	1.9923107788302306	-0.7338719184887355	-0.23099927626617198	2.0567214089243753	-0.7068819049530801	-0.26942452147076673	1.9830476265619825	-0.639471100588683	-0.29088798585127523	1.9102043793503278	-0.5762423195238461	-0.25835189802158504	1.9142212713834894	-0.6242855497065692	-0.22438576996584358	1.998878358025904	-0.8243600137883307	-0.20630615668858904	1.926102811218011	-0.8972133785831111	-0.20516717536948606	1.967702347474279	-0.8325820637981798
49	1.6333333333333333	-0.2500375039257504	1.8396915622644416	-0.7398086221374165	-0.2614983310573909	1.8369323709059933	-0.679165767750101	-0.2594592973295768	1.6907235062975117	-0.49687705676444205													-0.23376739950814313	1.8412120637692333	-0.8075294710041984	-0.24127855261703987	1.7145491016602774	-0.7684075794878215													-0.246714878121557	1.9941068310798609	-0.7473501397168388	-0.23261808928962788	2.05608779639115	-0.7127220700955162	-0.2679858737507591	1.9835714715674144	-0.6531867574503419	-0.2833639862271399	1.9060624745088308	-0.5963287918300055	-1.3853008362165917	1.8292676066312568	0.5119342850754754	-0.22292649376199228	2.00237064711122	-0.8408980858083053	-0.19821471517542985	1.9280729755204546	-0.9125212165174656	-0.2037443329054497	1.9697644045551377	-0.8495957791175726
50	1.6666666666666667	-0.24700565282919976	1.8432330888485846	-0.7536920009663828	-0.2607611057939956	1.8417330876844304	-0.6885692017711429	-0.2594592973295768	1.6907235062975117	-0.49687705676444205													-0.2272982869560274	1.8481915715991553	-0.8181033501464335	-0.24127855261703987	1.7145491016602774	-0.7684075794878215													-0.24473326538519544	1.9974570341364275	-0.7612673299280734	-0.23304766538858593	2.0573088877734325	-0.7244038510330718	-0.2662101036860793	1.9863573898217413	-0.6670715570860473	-0.2758806236297188	1.911388863707559	-0.6175563276045738	-1.3907682049175463	1.8517502570191373	0.5116577817033641	-0.21985539663323933	2.004656545751958	-0.8517311689419816	-0.18995807302813497	1.9420155742030818	-0.9177162192271987	-0.19586205099140763	1.9926451433863008	-0.8355058016488204
51	1.7	-0.2439738017326491	1.8467746154327278	-0.767575379795349	-0.2569567738743471	1.8444116733675413	-0.7049736984025923	-0.2594592973295768	1.6907235062975117	-0.49687705676444205													-1.0226157291636702	1.7523737290103905	-0.07878334524830842	-0.24127855261703987	1.7145491016602774	-0.7684075794878215													-0.24295153819867096	1.998639874630405	-0.7757588503642626	-0.23057887039718514	2.0547778276740662	-0.7346537775607999	-0.2631841759394534	1.991398139572493	-0.6952340523674252	-0.2711495252440766	1.9231969101673667	-0.6320319541553866	-0.25807184914746006	1.9745631597267495	-0.645077175611937	-0.2198499201648887	2.0084479773229544	-0.8633496239351035	-0.18316405426449914	1.9520323800454988	-0.9171123412885287	-0.19447724276632303	2.010333020172242	-0.8564988431944418
52	1.7333333333333334	-0.24094195063609844	1.8503161420168708	-0.7814587586243152	-0.2531524419546986	1.847090259050652	-0.7213781950340418	-0.2594592973295768	1.6907235062975117	-0.49687705676444205													-1.017839662822661	1.7569519946724024	-0.09147609278893583	-0.24127855261703987	1.7145491016602774	-0.7684075794878215													-0.24011014497657956	1.9997456390885724	-0.7862233360393949	-0.22992373653273976	2.056712554529251	-0.7428310479815138	-0.2605817015531253	1.9923476542674219	-0.7059061128359242	-1.417528590772349	1.8405464028456817	0.5532479093443536	-0.25401865686024544	1.9991564379845874	-0.6564150228082593	-0.21904531771866684	2.0097894891136865	-0.8716471866052501	-0.18145003820095604	1.9602610904777205	-0.9006465142094636	-0.19148139452967772	2.0090929009662504	-0.8558960437766456
53	1.7666666666666666	-0.23944066782646858	1.851680182948819	-0.7870739227527879	-0.25457929936830026	1.8517475597656288	-0.7280074183667454	-0.2594592973295768	1.6907235062975117	-0.49687705676444205													-1.0183808151887692	1.7558069382997965	-0.09059839920809193	-0.24127855261703987	1.7145491016602774	-0.7684075794878215													-0.24187279135972575	2.0028986874193837	-0.8036450282014271	-0.2294375354376409	2.059705741009874	-0.7516951171881333	-0.2619611159977426	1.998452173484979	-0.7213666046943658	-1.4057093638332339	1.8540223914063894	0.5307775276577997	-0.2489416750743594	2.0068718329093604	-0.6880432760090882	-0.21669226045584233	2.0102432191304693	-0.8848730906243708	-0.1862088133076962	1.9633120443530758	-0.8846695450681719	-0.18882631350976387	2.006113101311153	-0.8444841010007219
54	1.8	-0.2400732440338492	1.853813451565943	-0.7905011446025922	-0.25330223825315207	1.851993203614379	-0.7333568860671119	-0.2594592973295768	1.6907235062975117	-0.49687705676444205													-1.0120442176214244	1.759093378900776	-0.10301615896695819	-0.24127855261703987	1.7145491016602774	-0.7684075794878215													-0.23730597250706897	2.005451920841033	-0.8083152065078738	-0.2279291857460025	2.0592257394357136	-0.7566876760749633	-0.25954978986104277	2.0009363732850907	-0.7239811904725301	-1.3877299038718043	1.854558697518066	0.5007555003783448	-0.24487419648327194	2.005028073169839	-0.7131444607014149	-0.21420203889670872	2.0128062472643307	-0.887480759650116	-0.1891424086910033	1.9678839166753241	-0.8629881215080826	-0.2125115821512486	2.0151675517022727	-0.8047408100725135
55	1.8333333333333333	-0.2408833080340638	1.8569320766187098	-0.793769320128573	-0.2542515490241998	1.8566350667879847	-0.7368315122345851	-0.2594592973295768	1.6907235062975117	-0.49687705676444205													-1.0174221551809448	1.7628400518006313	-0.09664037268355749	-0.24127855261703987	1.7145491016602774	-0.7684075794878215													-0.23723064499306176	2.0054949915390368	-0.8084412187645934	-0.2266516475653042	2.060567690172631	-0.762100373539374	-0.2602810328247923	2.002722852103182	-0.7269175865779396	-1.3784568512612652	1.8549996256241548	0.4852302143472953	-0.2414698955358642	2.0122146310132267	-0.7327043876083359	-0.21160593267105568	2.0146143509436043	-0.889574777254568	-0.1919983936088933	1.9625905317901606	-0.849426920743168	-0.2192007379646551	2.0174230580745642	-0.7983351009410439
56	1.8666666666666667	-0.24092075742741018	1.8555185802576863	-0.7936893005563335	-0.25423314196404456	1.854669362357574	-0.7367006160628697	-0.2594592973295768	1.6907235062975117	-0.49687705676444205													-1.01149945009441	1.761351857932795	-0.10315940576554067	-0.24127855261703987	1.7145491016602774	-0.7684075794878215													-0.23706740077072574	2.0065488985350135	-0.8084457550656196	-0.2265891374019818	2.0602931555236337	-0.7622074594405233	-0.25818142920670345	2.00403229835813	-0.7294107734040808	-1.3766429642009654	1.8569672871042873	0.4840984721237501	-0.23891167287083168	2.0141158442635185	-0.7344995095027596	-0.2107979310565863	2.0132786094626987	-0.8864766268092347	-0.1936111672903498	1.9622713958685596	-0.8441306413160062	-0.21459875455206726	2.016770335460358	-0.8022301389491809
